<svg width="2279" height="778" viewBox="0 0 2279 778" fill="none" xmlns="http://www.w3.org/2000/svg">
<path d="M535.073 271H326L390.929 109H600L535.073 271Z" fill="#2D558A"/>
<path d="M456.071 469H247L311.928 308H521L456.071 469Z" fill="url(#paint0_linear)"/>
<path d="M281.173 271H191.958C134.718 271 95.588 213.086 116.886 159.864C122.897 144.847 133.26 131.977 146.64 122.912C160.02 113.847 175.804 109.001 191.958 109H346L281.173 271Z" fill="url(#paint1_linear)"/>
<path d="M734.042 271H580L644.827 109H734.042C791.282 109 830.412 166.924 809.114 220.136C803.106 235.155 792.744 248.027 779.363 257.093C765.982 266.159 750.197 271.002 734.042 271Z" fill="url(#paint2_linear)"/>
<path d="M310.823 668C242.36 668 195.57 598.61 221.039 534.861L232.575 506H441L400.617 607.067C393.428 625.058 381.033 640.478 365.029 651.338C349.025 662.198 330.145 668.001 310.823 668Z" fill="#2D558A"/>
<path d="M1093.25 505H1058.24V320.869H995.248V290.84H1156.23V320.869H1093.25V505ZM1175.92 342.988H1213.42L1246.38 434.834C1251.36 447.92 1254.68 460.225 1256.34 471.748H1257.51C1258.39 466.377 1260 459.883 1262.35 452.266C1264.69 444.551 1277.09 408.125 1299.55 342.988H1336.76L1267.47 526.533C1254.88 560.225 1233.88 577.07 1204.49 577.07C1196.87 577.07 1189.45 576.24 1182.22 574.58V547.334C1187.4 548.506 1193.3 549.092 1199.95 549.092C1216.55 549.092 1228.22 539.473 1234.96 520.234L1240.96 505L1175.92 342.988ZM1503.52 446.846C1503.52 465.889 1496.63 480.83 1482.87 491.67C1469.1 502.51 1450.1 507.93 1425.88 507.93C1401.66 507.93 1381.84 504.17 1366.41 496.65V463.545C1376.18 468.135 1386.53 471.748 1397.46 474.385C1408.5 477.021 1418.75 478.34 1428.23 478.34C1442.09 478.34 1452.3 475.703 1458.84 470.43C1465.48 465.156 1468.8 458.076 1468.8 449.189C1468.8 441.182 1465.78 434.395 1459.72 428.828C1453.67 423.262 1441.17 416.67 1422.22 409.053C1402.69 401.143 1388.92 392.109 1380.91 381.953C1372.9 371.797 1368.9 359.59 1368.9 345.332C1368.9 327.461 1375.25 313.398 1387.94 303.145C1400.64 292.891 1417.68 287.764 1439.07 287.764C1459.57 287.764 1479.98 292.256 1500.3 301.24L1489.16 329.805C1470.12 321.797 1453.13 317.793 1438.19 317.793C1426.86 317.793 1418.27 320.283 1412.41 325.264C1406.55 330.146 1403.62 336.641 1403.62 344.746C1403.62 350.312 1404.79 355.098 1407.13 359.102C1409.48 363.008 1413.33 366.719 1418.71 370.234C1424.08 373.75 1433.74 378.389 1447.71 384.15C1463.43 390.693 1474.96 396.797 1482.28 402.461C1489.6 408.125 1494.97 414.521 1498.39 421.65C1501.81 428.779 1503.52 437.178 1503.52 446.846ZM1621.64 507.93C1597.13 507.93 1578.48 500.801 1565.69 486.543C1552.99 472.188 1546.64 451.631 1546.64 424.873C1546.64 397.627 1553.29 376.68 1566.57 362.031C1579.95 347.383 1599.23 340.059 1624.43 340.059C1641.52 340.059 1656.9 343.232 1670.57 349.58L1660.17 377.266C1645.62 371.602 1633.61 368.77 1624.13 368.77C1596.11 368.77 1582.09 387.373 1582.09 424.58C1582.09 442.744 1585.56 456.416 1592.49 465.596C1599.53 474.678 1609.78 479.219 1623.26 479.219C1638.59 479.219 1653.09 475.41 1666.76 467.793V497.822C1660.61 501.436 1654.02 504.023 1646.99 505.586C1640.05 507.148 1631.61 507.93 1621.64 507.93ZM1821.21 505L1814.33 482.441H1813.16C1805.35 492.305 1797.48 499.043 1789.57 502.656C1781.66 506.172 1771.51 507.93 1759.11 507.93C1743.19 507.93 1730.74 503.633 1721.75 495.039C1712.87 486.445 1708.42 474.287 1708.42 458.564C1708.42 441.865 1714.62 429.268 1727.03 420.771C1739.43 412.275 1758.32 407.637 1783.71 406.855L1811.69 405.977V397.334C1811.69 386.982 1809.25 379.268 1804.37 374.189C1799.58 369.014 1792.11 366.426 1781.96 366.426C1773.66 366.426 1765.7 367.646 1758.08 370.088C1750.46 372.529 1743.14 375.41 1736.11 378.73L1724.97 354.121C1733.76 349.531 1743.38 346.064 1753.83 343.721C1764.28 341.279 1774.14 340.059 1783.42 340.059C1804.03 340.059 1819.55 344.551 1830 353.535C1840.55 362.52 1845.82 376.631 1845.82 395.869V505H1821.21ZM1769.95 481.562C1782.45 481.562 1792.46 478.096 1799.97 471.162C1807.59 464.131 1811.4 454.316 1811.4 441.719V427.656L1790.6 428.535C1774.39 429.121 1762.57 431.855 1755.15 436.738C1747.83 441.523 1744.16 448.896 1744.16 458.857C1744.16 466.084 1746.31 471.699 1750.61 475.703C1754.91 479.609 1761.35 481.562 1769.95 481.562ZM2051.4 505H2016.83V405.391C2016.83 392.891 2014.29 383.564 2009.21 377.412C2004.23 371.26 1996.27 368.184 1985.34 368.184C1970.79 368.184 1960.14 372.48 1953.4 381.074C1946.66 389.668 1943.29 404.072 1943.29 424.287V505H1908.87V342.988H1935.82L1940.66 364.229H1942.42C1947.3 356.514 1954.23 350.557 1963.22 346.357C1972.2 342.158 1982.16 340.059 1993.1 340.059C2031.97 340.059 2051.4 359.834 2051.4 399.385V505Z" fill="#293343"/>
<defs>
<linearGradient id="paint0_linear" x1="247" y1="469" x2="464.556" y2="469" gradientUnits="userSpaceOnUse">
<stop stop-color="#2689BD"/>
<stop offset="1" stop-color="#2773A6"/>
</linearGradient>
<linearGradient id="paint1_linear" x1="118.99" y1="109" x2="291.715" y2="109" gradientUnits="userSpaceOnUse">
<stop stop-color="#2689BD"/>
<stop offset="1" stop-color="#2773A6"/>
</linearGradient>
<linearGradient id="paint2_linear" x1="815" y1="271" x2="580" y2="271" gradientUnits="userSpaceOnUse">
<stop stop-color="#2773A6"/>
<stop offset="1" stop-color="#2689BD"/>
</linearGradient>
</defs>
</svg>
